<?xml version="1.0" encoding="UTF-8" standalone="no"?>
<svg
   viewBox="0 0 50 50"
   width="50px"
   height="50px"
   version="1.1"
   id="svg1"
   sodipodi:docname="icons8-linkedin.svg"
   inkscape:version="1.3.2 (091e20e, 2023-11-25)"
   xmlns:inkscape="http://www.inkscape.org/namespaces/inkscape"
   xmlns:sodipodi="http://sodipodi.sourceforge.net/DTD/sodipodi-0.dtd"
   xmlns:xlink="http://www.w3.org/1999/xlink"
   xmlns="http://www.w3.org/2000/svg"
   xmlns:svg="http://www.w3.org/2000/svg">
  <defs
     id="defs1">
    <linearGradient
       id="linearGradient8"
       inkscape:collect="always">
      <stop
         style="stop-color:#00e9e7;stop-opacity:1;"
         offset="0"
         id="stop8" />
      <stop
         style="stop-color:#f1fe00;stop-opacity:0.9012658;"
         offset="1"
         id="stop9" />
    </linearGradient>
    <linearGradient
       inkscape:collect="always"
       xlink:href="#linearGradient8"
       id="linearGradient9"
       x1="4"
       y1="25"
       x2="46"
       y2="25"
       gradientUnits="userSpaceOnUse" />
  </defs>
  <sodipodi:namedview
     id="namedview1"
     pagecolor="#ffffff"
     bordercolor="#000000"
     borderopacity="0.25"
     inkscape:showpageshadow="2"
     inkscape:pageopacity="0.0"
     inkscape:pagecheckerboard="0"
     inkscape:deskcolor="#d1d1d1"
     inkscape:zoom="4.72"
     inkscape:cx="2.1186441"
     inkscape:cy="26.271186"
     inkscape:window-width="1312"
     inkscape:window-height="449"
     inkscape:window-x="0"
     inkscape:window-y="25"
     inkscape:window-maximized="0"
     inkscape:current-layer="svg1" />
  <path
     d="M41,4H9C6.24,4,4,6.24,4,9v32c0,2.76,2.24,5,5,5h32c2.76,0,5-2.24,5-5V9C46,6.24,43.76,4,41,4z M17,20v19h-6V20H17z M11,14.47c0-1.4,1.2-2.47,3-2.47s2.93,1.07,3,2.47c0,1.4-1.12,2.53-3,2.53C12.2,17,11,15.87,11,14.47z M39,39h-6c0,0,0-9.26,0-10 c0-2-1-4-3.5-4.04h-0.08C27,24.96,26,27.02,26,29c0,0.91,0,10,0,10h-6V20h6v2.56c0,0,1.93-2.56,5.81-2.56 c3.97,0,7.19,2.73,7.19,8.26V39z"
     id="path1"
     style="fill:url(#linearGradient9);fill-opacity:1" />
</svg>
