<?xml version="1.0" encoding="UTF-8" standalone="no"?>
<svg
   width="38"
   height="28"
   viewBox="0 0 38 28"
   fill="none"
   version="1.1"
   id="svg1"
   sodipodi:docname="mail_icon.svg"
   inkscape:version="1.3.2 (091e20e, 2023-11-25)"
   xmlns:inkscape="http://www.inkscape.org/namespaces/inkscape"
   xmlns:sodipodi="http://sodipodi.sourceforge.net/DTD/sodipodi-0.dtd"
   xmlns="http://www.w3.org/2000/svg"
   xmlns:svg="http://www.w3.org/2000/svg">
  <defs
     id="defs1" />
  <sodipodi:namedview
     id="namedview1"
     pagecolor="#ffffff"
     bordercolor="#000000"
     borderopacity="0.25"
     inkscape:showpageshadow="2"
     inkscape:pageopacity="0.0"
     inkscape:pagecheckerboard="0"
     inkscape:deskcolor="#d1d1d1"
     inkscape:zoom="6.2105263"
     inkscape:cx="18.919492"
     inkscape:cy="14.008475"
     inkscape:window-width="1312"
     inkscape:window-height="449"
     inkscape:window-x="0"
     inkscape:window-y="25"
     inkscape:window-maximized="0"
     inkscape:current-layer="svg1" />
  <path
     d="M 31.9853,0 H 5.15656 C 2.30882,0 0,2.30882 0,5.15656 V 22.1304 c 0,2.8477 2.30882,5.1566 5.15656,5.1566 H 31.9853 c 2.8477,0 5.1566,-2.3089 5.1566,-5.1566 V 5.15656 C 37.1419,2.30882 34.833,0 31.9853,0 Z M 12.9247,18.411 5.70375,24.5713 C 5.19442,25.006 4.42873,24.9456 3.99413,24.4357 3.55945,23.9264 3.61988,23.1607 4.12979,22.7261 l 7.22091,-6.1603 c 0.5092,-0.4347 1.2749,-0.3743 1.7095,0.1356 0.4347,0.5093 0.3743,1.275 -0.1355,1.7096 z m 5.6462,-2.342 c -0.9658,-0.0024 -1.902,-0.3233 -2.634,-0.9563 l 6e-4,6e-4 -0.0023,-0.0018 c 6e-4,6e-4 0.0012,6e-4 0.0017,0.0012 L 4.85761,5.49649 C 4.35126,5.05703 4.29736,4.29141 4.73617,3.78572 5.17556,3.27937 5.94125,3.22547 6.44687,3.66428 L 17.5293,13.2829 c 0.2369,0.2108 0.6271,0.363 1.0416,0.3606 0.414,0.0012 0.7976,-0.1468 1.0476,-0.3648 L 19.6238,13.274 30.6949,3.66435 c 0.5057,-0.43881 6.101908,-1.8340625 1.7108,0.12144 0.4388,0.50562 0.3849,1.27131 -0.1214,1.71077 L 21.2019,15.1157 c -0.7295,0.6264 -1.6645,0.9521 -2.631,0.9533 z m 14.5774,8.3667 c -0.4347,0.5099 -1.2004,0.5703 -1.7096,0.1356 L 24.2178,18.411 c -0.5098,-0.4347 -0.5702,-1.2003 -0.1356,-1.7096 0.4346,-0.5099 1.2003,-0.5702 1.7096,-0.1356 l 7.2209,6.1603 c 0.5098,0.4346 0.5702,1.2003 0.1356,1.7096 z"
     fill="#D8D8D8"
     id="path1"
     style="fill:#d8d8d8;fill-opacity:1"
     sodipodi:nodetypes="sssssssssccccccccccccccccccccccccccccccc" />
</svg>
